<svg width="21" height="20" viewBox="0 0 21 20" fill="none" xmlns="http://www.w3.org/2000/svg">
<path d="M15.3571 5.05161C14.0335 3.87129 12.3158 3.22427 10.4936 3.22581C7.21409 3.22855 4.3829 5.37008 3.6012 8.34073C3.5443 8.55698 3.34201 8.70968 3.10792 8.70968H0.68178C0.364325 8.70968 0.123163 8.4352 0.181887 8.13806C1.09797 3.505 5.3691 0 10.5 0C13.3133 0 15.8682 1.05387 17.7533 2.76956L19.2654 1.32944C19.9055 0.719798 21 1.15157 21 2.01375V7.41935C21 7.95383 20.5451 8.3871 19.9839 8.3871H14.308C13.4027 8.3871 12.9493 7.34472 13.5895 6.73504L15.3571 5.05161ZM1.01613 11.6129H6.69201C7.5973 11.6129 8.05066 12.6553 7.41054 13.265L5.6429 14.9484C6.9665 16.1288 8.68431 16.7758 10.5066 16.7742C13.7844 16.7714 16.6167 14.6313 17.3988 11.6594C17.4557 11.4431 17.658 11.2904 17.8921 11.2904H20.3183C20.6357 11.2904 20.8769 11.5649 20.8182 11.862C19.902 16.495 15.6309 20 10.5 20C7.68668 20 5.13183 18.9461 3.24674 17.2304L1.73462 18.6706C1.0945 19.2802 0 18.8484 0 17.9862V12.5806C0 12.0462 0.454929 11.6129 1.01613 11.6129Z" fill="white"/>
</svg>
